<svg xmlns="http://www.w3.org/2000/svg" width="256" height="256"><path fill="#1976D2" fill-opacity=".016" fill-rule="evenodd" d="M0 128.004v128.004l128.25-.254 128.25-.254.254-127.75L257.008 0H0v128.004m.485.496c0 70.4.119 99.053.265 63.672.146-35.38.146-92.98 0-128C.604 29.153.485 58.1.485 128.5"/><path fill="#1976D2" fill-opacity=".171" fill-rule="evenodd" d="M73.091 13.09c-3.414 1.365-18.094 10.178-18.074 10.851.028.918 62.961 79.448 64.795 80.852.928.711 1.688 1.76 1.688 2.331 0 .57.787 1.613 1.75 2.317.963.704 1.75 1.789 1.75 2.411 0 .622.9 1.693 2 2.38 1.1.687 2 1.812 2 2.5s.9 1.813 2 2.5 2 1.8 2 2.473c0 .674.913 1.713 2.028 2.31s1.786 1.477 1.49 1.955c-.295.478.577 1.746 1.939 2.817 1.361 1.071 2.226 2.196 1.922 2.5-.304.304.612 1.316 2.034 2.248 1.423.932 2.587 2.402 2.587 3.267 0 1.151.778.827 2.907-1.212 1.598-1.532 3.286-2.741 3.75-2.688.463.054.843-.315.843-.819 0-1.254 1.422-2.573 2.833-2.628.642-.025 1.074-.528.961-1.118-.113-.589.9-2.11 2.25-3.379 1.351-1.268 2.456-2.728 2.456-3.244 0-.515-1.842-3.136-4.093-5.825S153.141 111 153.542 111c.4 0-.462-.936-1.917-2.08-1.454-1.144-2.388-2.494-2.076-3 .313-.506.128-.92-.412-.92-1.093 0-22.927-27.343-22.137-27.722.275-.132-.513-.949-1.75-1.815-1.237-.867-2.25-2.118-2.25-2.779 0-.662-.917-1.776-2.039-2.476-1.121-.7-1.8-1.659-1.508-2.131.291-.472-.606-1.602-1.993-2.512-1.388-.909-2.272-2.061-1.964-2.559.308-.498-.353-1.394-1.468-1.991-1.115-.597-2.028-1.729-2.028-2.515s-.9-1.911-2-2.5-2-1.714-2-2.5-.913-1.918-2.028-2.515c-1.115-.597-1.783-1.482-1.483-1.967.299-.485-.476-1.596-1.722-2.469-1.247-.873-2.267-1.917-2.267-2.319 0-.685-24.383-32.304-24.805-32.167-.107.035-1.279.497-2.604 1.027m-33.98 23.426C34.65 40.778 31 44.698 31 45.226c0 .529 3.976 5.982 8.836 12.118 53.462 67.505 80.635 101.101 81.555 100.833.61-.177 5.043-3.296 9.851-6.93 7.619-5.759 8.571-6.809 7.412-8.177-.731-.864-20.594-25.87-44.139-55.57S50.697 32.435 49.464 31.134l-2.242-2.367-8.111 7.749m174.033 22.588c-13.67 27.794-31.771 53.461-52.144 73.935-37.661 37.848-81.904 59.754-134.266 66.476l-4.767.612 4.759 6.057c27.892 35.502 74.346 53.957 119.274 47.384 26.799-3.921 50.67-15.592 70.191-34.319 11.298-10.837 18.993-21.049 25.524-33.874 7.211-14.157 13.028-33.319 13.417-44.19l.131-3.685.737 3.5c.489 2.321.781-.518.868-8.429.073-6.561-.286-13.311-.796-15-.511-1.689-1.445-6.671-2.077-11.071-1.495-10.423-6.87-26.508-12.483-37.356-4.381-8.467-17.035-26.294-19.012-26.783-.55-.136-4.76 7.398-9.356 16.743M20.24 59.23c-2.677 4.1-5.445 8.851-6.152 10.556l-1.284 3.102 40.211 50.556c22.115 27.806 40.722 50.554 41.348 50.551 2.285-.01 18.134-9.834 18.034-11.179-.071-.954-81.167-104.162-86.967-110.679-.177-.2-2.513 2.992-5.19 7.093M5.675 89.75c-1.452 4.813-3.106 10.917-3.676 13.565l-1.037 4.816 31.163 39.184 31.403 39.486c.581.727 21.952-8.403 21.772-9.301-.254-1.267-75.592-96.389-76.392-96.453-.326-.026-1.781 3.891-3.233 8.703m199.408 17.5c-1.165 3.529-1.482 3.75-5.373 3.75h-4.134l3.286 2.75c3.013 2.521 3.194 2.99 2.184 5.639-1.438 3.769-.935 4.098 2.331 1.529l2.683-2.11 3.462 2.641 3.463 2.641-.993-2.61c-1.646-4.331-1.15-6.274 2.089-8.173l3.08-1.807-4.247-.5c-3.795-.447-4.372-.873-5.42-4l-1.173-3.5-1.238 3.75M1 134.771c0 19.159 2.705 31.212 10.936 48.729 5.849 12.449 6.085 12.629 15.064 11.483 9.748-1.243 28.002-5.067 27.992-5.863-.004-.341-12.154-15.881-27-34.534L1 120.672v14.099m173.083 2.479c-1.165 3.529-1.484 3.752-5.411 3.777l-4.172.027 3.401 2.82c3.223 2.674 3.341 2.993 2.25 6.123-1.565 4.489-1.576 4.481 2.071 1.626l3.222-2.521 3.457 2.636c2.914 2.222 3.328 2.332 2.636.699-2.122-5.012-1.779-6.879 1.64-8.937l3.323-2-4.417-.5c-3.99-.452-4.529-.838-5.589-4l-1.173-3.5-1.238 3.75m31.273 19.026c-.808 2.834-1.391 3.263-4.815 3.545l-3.896.321 2.885 2.3c2.725 2.173 2.822 2.505 1.748 6.004-1.134 3.695-1.131 3.7 1.043 2.115 3.78-2.757 4.531-2.803 7.796-.477l3.189 2.27-.649-2.584c-.357-1.421-.9-3.241-1.208-4.044-.354-.922.656-2.238 2.745-3.576l3.306-2.116-4.171-.017c-3.812-.016-4.227-.274-4.826-3.006-.928-4.221-2.077-4.49-3.147-.735m-71 19c-.808 2.834-1.391 3.263-4.815 3.545l-3.896.321 2.885 2.3c2.725 2.173 2.822 2.505 1.748 6.004-1.134 3.695-1.131 3.7 1.043 2.115 3.783-2.759 4.531-2.802 7.827-.456 2.739 1.951 3.116 2.025 2.531.501-2.048-5.336-1.88-6.282 1.499-8.445l3.322-2.127-4.275-.017c-3.951-.016-4.321-.246-4.879-3.038-.846-4.229-1.914-4.48-2.99-.703M81.5 195c-.602 2.742-1.017 3.002-4.829 3.027l-4.171.027 3.311 2.747c3.029 2.513 3.218 2.991 2.222 5.612-1.421 3.737-.917 4.07 2.314 1.528L83 205.855l2.653 2.086c3.243 2.551 3.899 2.081 2.539-1.821-.948-2.719-.76-3.203 2.134-5.504l3.174-2.522-4.171-.047c-3.806-.043-4.228-.309-4.829-3.047-.362-1.65-1.037-3-1.5-3-.463 0-1.138 1.35-1.5 3m95 3c-.602 2.742-1.017 3.002-4.829 3.027l-4.171.027 3.311 2.747c3.029 2.513 3.218 2.991 2.222 5.612-1.419 3.734-.917 4.07 2.3 1.539l2.639-2.075 3.511 2.678 3.51 2.677-1.45-4.111-1.451-4.111 3.686-2.505 3.686-2.505h-4.652c-4.357 0-4.695-.191-5.312-3-.362-1.65-1.037-3-1.5-3-.463 0-1.138 1.35-1.5 3m-52.855 8.36c-1.533 3.619-1.86 3.834-5.247 3.438l-3.612-.421 3.168 2.585c2.887 2.357 3.072 2.841 2.079 5.451-1.346 3.541-.631 4.438 1.79 2.248 2.395-2.168 3.759-2.095 7.245.388l2.878 2.049-1.42-4.024c-1.411-4-1.402-4.034 1.527-5.765 3.852-2.275 3.718-2.809-.703-2.809-3.276 0-3.776-.36-4.861-3.5l-1.209-3.5-1.635 3.86"/><path fill="#1976D2" fill-opacity=".563" fill-rule="evenodd" d="M214.314 57.792c-22.198 45.437-53.438 81.815-92.314 107.502-26.58 17.562-63.881 31.419-92.355 34.308l-6.855.696 3.105 2.902c1.708 1.596 3.105 3.303 3.105 3.794 0 2.091 20.164 21.059 27.5 25.868 22.035 14.446 44.962 21.265 71.5 21.267 48.469.003 92.007-26.601 113.63-69.433 9.367-18.555 13.37-35.68 13.37-57.196 0-26.192-6.503-48.172-20.555-69.468-4.684-7.1-11.199-15.057-12.273-14.99-.37.023-3.906 6.661-7.858 14.75M22.713 56.165c-1.385 1.834-4.12 6.266-6.077 9.849l-3.56 6.513 39.06 48.987c21.482 26.942 39.65 49.816 40.372 50.831 1.241 1.744 1.838 1.553 10.83-3.463 5.235-2.919 9.253-5.734 8.931-6.256-.607-.981-84.937-107.479-86.281-108.961-.417-.459-1.89.666-3.275 2.5M7.508 85.326C5.63 89.821 2 103.844 2 106.604c0 1.417 11.103 16.161 30.547 40.561 25.532 32.042 30.932 38.307 32.892 38.161 2.578-.19 17.561-5.959 18.897-7.275.46-.453-13.948-19.437-32.017-42.187C34.25 113.114 17.27 91.688 14.585 88.25 11.901 84.813 9.523 82 9.301 82c-.221 0-1.028 1.497-1.793 3.326M205.09 105.5a228.01 228.01 0 0 0-1.588 4.25c-.259.736-2.194 1.25-4.709 1.25h-4.269l3.657 2.602 3.658 2.603-1.375 3.897c-1.397 3.959-.698 5.09 1.504 2.437 2.143-2.582 4.892-2.794 7.689-.594 3.302 2.597 3.894 2.074 2.424-2.142-1.085-3.114-.966-3.451 2.135-6.024l3.284-2.725-4.167-.027c-3.998-.026-4.226-.199-5.63-4.277l-1.465-4.25-1.148 3M.357 134c.876 20.047 5.124 36.324 13.933 53.382l4.07 7.881 7.109-.601c6.79-.574 17.778-2.59 25.744-4.724l3.713-.995-25.586-32.222C15.268 139 2.858 123.6 1.761 122.5-.23 120.502-.232 120.513.357 134m173.64 2.701c-1.243 4.067-1.431 4.211-5.891 4.5l-4.606.299 3.69 2.294 3.69 2.295-1.396 3.955c-1.564 4.435-1.108 4.79 2.516 1.956 3.139-2.455 3.607-2.454 6.745.014 3.215 2.529 3.796 1.978 2.336-2.211-1.085-3.114-.966-3.451 2.135-6.024l3.284-2.725-4.167-.027c-4.001-.026-4.224-.196-5.609-4.277l-1.443-4.25-1.284 4.201m31.006 18.79c-1.062 3.219-1.482 3.509-5.081 3.509-4.709 0-4.921.836-.888 3.5 2.189 1.446 2.884 2.554 2.505 4-.288 1.1-.825 3.091-1.193 4.425l-.671 2.424 3.488-2.66 3.488-2.66 3.353 2.474c1.844 1.36 3.483 2.343 3.642 2.184.159-.159-.226-1.967-.855-4.017-1.103-3.594-1.021-3.835 2.282-6.659l3.427-2.93-4.671-.04c-4.359-.038-4.714-.24-5.326-3.03-.954-4.339-2.179-4.522-3.5-.52m-70.648 18.785c-.827 2.899-1.344 3.255-5.137 3.531-2.32.17-4.217.62-4.215 1 .001.381 1.366 1.593 3.031 2.693 2.189 1.446 2.884 2.554 2.505 4-.288 1.1-.825 3.091-1.193 4.425l-.671 2.424 3.471-2.647 3.471-2.647 3.691 2.509c4.153 2.822 4.258 2.727 2.261-2.054-1.419-3.396-1.399-3.453 2.25-6.434l3.681-3.009-4.671-.033c-4.362-.032-4.713-.231-5.326-3.023-.928-4.221-2.077-4.49-3.148-.735M81.363 194.25c-.842 2.95-1.328 3.279-5.281 3.564l-4.353.314 3.297 2.753c3.126 2.61 3.237 2.926 2.131 6.098-.641 1.84-.974 3.537-.74 3.771.234.234 1.811-.598 3.504-1.85L83 206.624l3.079 2.276c1.693 1.252 3.27 2.084 3.504 1.85.234-.234-.099-1.931-.74-3.771-1.106-3.172-.995-3.488 2.131-6.098l3.297-2.753-4.353-.314c-3.953-.285-4.439-.614-5.281-3.564-.509-1.787-1.246-3.25-1.637-3.25s-1.128 1.463-1.637 3.25m95.754 1.25a178.543 178.543 0 0 0-1.615 4.25c-.256.73-2.222 1.263-4.721 1.282-4.054.03-4.175.113-2.281 1.568 1.1.845 2.652 1.911 3.448 2.369 1.198.689 1.247 1.489.283 4.631-.641 2.089-.991 3.973-.777 4.187.214.214 1.739-.609 3.389-1.829l3-2.218 3.76 2.324c3.246 2.006 3.666 2.079 3.074.537-2.048-5.338-1.88-6.32 1.496-8.728l3.327-2.373-4.415-.5c-4.145-.469-4.489-.745-5.604-4.5l-1.188-4-1.176 3m-53.551 10c-.639 3.406-.782 3.5-5.324 3.5h-4.666l3.423 2.858c3.282 2.74 3.377 3.009 2.306 6.5-1.303 4.246-1.107 4.349 2.873 1.515l2.987-2.127 2.996 2.215c3.666 2.71 4.186 2.333 2.693-1.951-1.098-3.148-.984-3.455 2.245-6.092l3.401-2.777-4.468-.321c-4.08-.292-4.548-.602-5.395-3.57-1.199-4.208-2.251-4.122-3.071.25"/><path fill="#1976D2" fill-opacity=".406" fill-rule="evenodd" d="M217.344 53.038C189.955 110.709 148.425 154.526 97.5 179.482c-21.072 10.326-47.373 18.331-66.733 20.312l-7.267.743 5.5 3.531c41.703 26.777 93.068 36.658 141.712 27.26 9.264-1.79 11.004-3.118 12.436-9.492.532-2.368 1.63-5.038 2.438-5.931 1.133-1.252 1.234-2.247.442-4.33-1.296-3.411-1.289-3.854.053-3.025.669.413.955-.093.75-1.326-.196-1.184.685-2.877 2.169-4.165 1.881-1.632 1.467-1.516-1.676.47l-4.176 2.639 1.437 4.072c.79 2.24 1.219 4.29.953 4.555-.266.266-2.071-.727-4.011-2.206L178 209.898l-3.674 2.801-3.674 2.801.604-3c.332-1.65.889-3.737 1.237-4.637.433-1.116-.34-2.33-2.429-3.818-4.081-2.905-3.863-3.717.971-3.623 3.819.074 4.095-.123 5.158-3.672 1.399-4.669 2.329-4.73 3.807-.25 1.075 3.258 1.445 3.5 5.335 3.5h4.181l4.78-17.102c3.979-14.237 4.564-17.363 3.492-18.664-1.146-1.389-1.013-1.426 1.212-.331l2.5 1.231-2.5-2.045c-1.375-1.124-2.838-2.055-3.25-2.067-.412-.012-.75-.472-.75-1.022s1.949-1 4.332-1c4.124 0 4.387-.178 5.468-3.699 1.467-4.782.77-5.559-.778-.868-.647 1.962-1.537 3.567-1.978 3.567-.44 0 .959-6.187 3.108-13.75 2.15-7.562 4.181-15.012 4.514-16.555.406-1.877 1.074-2.625 2.022-2.261 2.08.798.672-1.042-2.556-3.34l-2.807-1.999-3.816 2.592-3.815 2.593.583-2.89c.321-1.589.868-3.627 1.216-4.527.433-1.116-.34-2.33-2.429-3.818-4.121-2.934-3.857-4.045.961-4.045 3.48 0 4.16-.372 5.029-2.75a260.725 260.725 0 0 1 1.592-4.25c.382-.977 1.099-.017 2.054 2.75 1.454 4.212 1.508 4.249 6.133 4.134 2.567-.064 3.861-.325 2.875-.581-1.126-.293-1.601-1.085-1.278-2.134 1.093-3.553 4.664-15.862 5.706-19.669a245.1 245.1 0 0 1 1.877-6.5c1.725-5.516 3.914-13.613 4.192-15.5.162-1.1.745-2.331 1.295-2.735.624-.458.542-.74-.219-.75-.67-.008-1.026-.577-.79-1.265.235-.687-.825-5.075-2.357-9.75l-2.786-8.5-5.004 10.538M7.186 87.254c-1.074 2.885-2.725 8.727-3.667 12.982l-1.714 7.736 5.333 6.764c30.255 38.381 57.212 71.332 57.727 70.564.349-.52 1.417-1.235 2.374-1.587 1.349-.498 1.543-1.154.864-2.927L62.258 165.5c-6.055-15.836-5.827-15.312-8.254-19-1.086-1.65-2.386-3.9-2.889-5-.503-1.1-2.085-3.707-3.515-5.794-1.43-2.087-2.6-4.009-2.6-4.272 0-.599-5.266-8.757-6.089-9.434-.335-.275-1.803-2.3-3.262-4.5s-3.831-5.764-5.271-7.92c-1.44-2.156-6.807-9.242-11.927-15.746l-9.31-11.826-1.955 5.246M214.35 114.25c-2.818 2.087-2.958 2.48-1.944 5.428 1.573 4.569 2.689 5.242 1.325.799-1.088-3.547-.997-3.853 1.812-6.101 3.763-3.011 2.836-3.109-1.193-.126M.312 132.5c.928 19.683 5.734 38.225 13.997 54l4.191 8 6-.284c6.212-.295 26.025-3.886 28.283-5.127.887-.488-6.806-10.892-24.875-33.647C13.521 137.324 1.299 122.05.748 121.5c-.669-.668-.814 2.986-.436 11m173.781 3c-.634 1.65-1.35 3.563-1.591 4.25-.257.731-2.218 1.261-4.721 1.277l-4.281.027 3.401 2.82c3.223 2.674 3.341 2.993 2.25 6.123-1.744 5.003-1.463 5.287 2.541 2.567l3.691-2.509 3.374 2.573c1.856 1.416 3.575 2.374 3.819 2.129.245-.245-.184-2.229-.953-4.409l-1.399-3.963 3.579-2.443 3.579-2.442-4.691-.305c-2.768-.18-4.709-.795-4.736-1.5-.025-.657-.645-2.545-1.377-4.195l-1.333-3-1.152 3m25.018 33.611c-.616 1.767-.945 3.388-.731 3.602.214.214.893-1.057 1.509-2.824.616-1.767.945-3.388.731-3.602-.214-.214-.893 1.057-1.509 2.824m-64.991 4.883c-1.178 3.93-1.29 4.007-5.91 4.04l-4.71.033 3.689 3.014 3.689 3.015-1.395 3.952c-1.563 4.431-1.106 4.786 2.517 1.952 3.183-2.49 4.126-2.476 7.418.114 3.394 2.67 4.097 1.976 2.597-2.568-1.085-3.288-.988-3.752 1.15-5.534 1.284-1.07 2.673-1.96 3.085-1.979.412-.018.75-.457.75-.976 0-.518-1.875-1.08-4.166-1.25-3.676-.271-4.295-.681-5.25-3.485-1.603-4.702-2.139-4.752-3.464-.328M81.118 194c-1.177 3.928-1.283 4-5.89 4h-4.692l3.806 2.586c2.723 1.851 3.623 3.06 3.162 4.25-.354.915-.909 2.979-1.234 4.587l-.589 2.922 3.659-2.791 3.66-2.791 3.66 2.791 3.659 2.791-.589-2.922c-.325-1.608-.863-3.627-1.196-4.488-.41-1.059.614-2.432 3.168-4.25L95.476 198h-4.698c-4.614 0-4.719-.071-5.896-4-.659-2.2-1.506-4-1.882-4-.376 0-1.223 1.8-1.882 4m42 11c-1.148 3.833-1.374 4.002-5.408 4.041l-4.21.04 3.374 2.886c3.166 2.708 3.304 3.083 2.25 6.108-1.712 4.911-1.423 5.2 2.521 2.52l3.644-2.476 3.2 2.44c1.76 1.343 3.475 2.441 3.811 2.441.336 0-.066-1.912-.894-4.25-1.397-3.945-1.376-4.337.294-5.456 6.102-4.091 6.137-4.228 1.09-4.262-4.62-.031-4.733-.109-5.908-4.032-.659-2.2-1.506-4-1.882-4-.376 0-1.223 1.8-1.882 4"/></svg>